<svg viewBox="0 0 1054 705" xmlns="http://www.w3.org/2000/svg" xml:space="preserve" style="fill-rule:evenodd;clip-rule:evenodd;stroke-linecap:round"><path style="fill:#fff" d="M0 0h1053.54v704.979H0z"/><path d="M22.14 1.6c4.78-.18 11.14 2.06 15.32 5.04 4.16 2.98 7.98 7.88 9.7 12.86 1.7 5 2.46 12.56.56 17.08-1.92 4.54-6.9 8.24-12.06 10.16-5.18 1.92-13.48 2.82-18.92 1.38-5.46-1.46-10.76-5.8-13.78-10.08-3-4.28-5.34-10.1-4.3-15.62S4.92 8.54 9.22 4.88C13.5 1.24 21.16 1.4 24.36.54c3.22-.86 3.7-.82 4.08-.78M20.46-1.5c5.26-.84 13.82 2.66 18.48 6.36 4.68 3.7 8.1 10.6 9.52 15.84 1.44 5.24.84 11.18-.98 15.62-1.82 4.42-4.68 8.88-9.9 10.92-5.24 2.04-16.16 3.04-21.5 1.3S8.04 40.7 5.5 36.78C2.96 32.86 1 29.46.84 25c-.16-4.46-.26-11.06 3.7-14.96 3.94-3.9 17.46-7.2 20-8.42 2.56-1.24-4.52.96-4.72 1.04" style="fill:#fa5252;fill-rule:nonzero" transform="translate(107.352 77.94)"/><path d="M19.94 1.84c5.3-1.24 12.94-.58 17.6 1.52 4.68 2.12 8.52 6.24 10.4 11.18 1.88 4.92 2.46 12.98.88 18.42-1.56 5.44-5.78 11.42-10.32 14.2-4.56 2.76-11.6 3.84-17 2.44S9.98 42.84 6.1 38.78c-3.86-4.08-7.84-8.6-7.8-13.56.04-4.96 3.72-12.22 8.08-16.2C10.74 5.04 20.92 2.9 24.4 1.34c3.5-1.56 3.34-1.96 2.98-1.7M13.82-.82c4.2-2.48 10 .4 15.52 2.88s14.22 7.7 17.58 12.04c3.34 4.34 3.82 9.38 2.52 14-1.28 4.62-6.28 10.72-10.28 13.7-4 2.98-8.36 3.62-13.72 4.18-5.36.58-14.8 1.62-18.46-.76-3.64-2.36-2.34-8.24-3.48-13.42C2.36 26.62-2.02 18.74.16 14.14 2.34 9.56 14.12 6.16 16.58 4.3c2.46-1.88-1.36-1.4-1.66-1.36" style="fill:none;fill-rule:nonzero;stroke:#000;stroke-width:2px" transform="translate(107.352 77.94)"/><path d="M-1.58-1.44c168.12-.38 840.44-.42 1008.78.2M1.98 3.02c169.06-.16 842.5-1.12 1009.98-1.84" style="fill:none;fill-rule:nonzero;stroke:#000;stroke-width:2px" transform="translate(21.585 598.065)"/><path d="M-2.18.14c33.52.04 170.42 1.58 203.76 1.92M1.06-1.88c33.32-.76 165.92.7 199.52.78" style="fill:none;fill-rule:nonzero;stroke:#000;stroke-width:2px" transform="translate(134.138 102.532)"/><path d="M144.3 21.9c21.14-12.06 39.38-17.26 54.48-26.26m-53.68 24.6c21.36-10.5 41.1-14.8 57.16-22.54" style="fill:none;fill-rule:nonzero;stroke:#000;stroke-width:2px" transform="translate(134.138 102.532)"/><path d="M144.58-19.14c21.36 1.06 39.52 9 54.2 14.78m-53.4-16.44c21.66 4.68 41.3 15.56 56.88 18.5" style="fill:none;fill-rule:nonzero;stroke:#000;stroke-width:2px" transform="translate(134.138 102.532)"/><path d="M.024-.43c-.009.017-.007.043-.006.063.012.021.036.062.044.083.01.046.024.092.038.133.025.052.044.092.089.132.016.014.019.014.041.014.024.002.025-.002.044-.016.046-.031.071-.07.105-.115.054-.067.094-.132.139-.212.006-.014.019-.039.019-.05 0-.02-.015-.041-.032-.044C.491-.443.472-.447.461-.436.43-.394.418-.34.391-.297.358-.236.319-.191.268-.13a.038.038 0 0 1-.035.01C.187-.13.172-.2.157-.234a.96.96 0 0 1-.031-.183C.12-.437.096-.469.075-.461.048-.46.042-.447.024-.43Z" style="fill-rule:nonzero" transform="matrix(40 0 0 40 186.228 56)"/><path d="M.083-.345h.234c.021 0 .064.012.063.012a.25.25 0 0 0 .076.013h.006c.013-.004.026-.008.032-.013l.012-.012A.143.143 0 0 0 .52-.384c0-.009-.011-.028-.039-.044-.013 0-.097-.019-.139-.019H.317C.314-.446.301-.443.298-.44H.07a.102.102 0 0 0-.019.025L.05-.396c0 .017.002.04.033.051Zm-.051.189c.01.053.057.052.06.052.03 0 .02-.013.054-.02.002-.001.131-.032.145-.032.005 0 .09-.006.121-.006h.031C.529-.162.568-.194.57-.2l.001-.012c0-.02-.006-.034-.043-.046C.52-.262.508-.269.5-.269H.443L.438-.27.417-.275.412-.276H.367c-.003 0-.016.006-.019.007-.064.013-.127.022-.171.031l-.025.006H.083c-.039.013-.051.019-.051.07v.006Z" style="fill-rule:nonzero" transform="matrix(40 0 0 40 207.148 56)"/><path d="M.114-.282c0 .041.059.066.063.069a.122.122 0 0 0 .051-.006c.004-.004.023-.033.019-.038 0-.011-.007-.02-.007-.032.011-.041.066-.083.108-.113.005-.005.101-.09.101-.108a.088.088 0 0 0-.025-.101.264.264 0 0 0-.197-.071c-.053 0-.107.008-.157.014-.074 0-.058.049-.058.051 0 .035.015.04.033.044h.044c.013 0 .082-.013.082-.013h.082c.01 0 .054.01.064.013.016.016.023.03.019.05A.644.644 0 0 1 .26-.45l-.045.026a.09.09 0 0 0-.012.009c-.046.034-.088.069-.089.133Zm.095.126c-.03.013-.054.049-.051.077v.012c.013.032.023.064.056.064.034.013.061-.042.065-.071C.29-.115.268-.146.228-.156H.209Z" style="fill-rule:nonzero" transform="matrix(40 0 0 40 231.828 56)"/><path d="M-1.78-2.22C-1.4 2.78.1 26.5.38 32.32M1.7 1.82c.26 6.4-2.44 27.74-3.02 33.34" style="fill:none;fill-rule:nonzero;stroke:#000;stroke-width:2px" transform="translate(960.043 598.174)"/><path d="M.149-.028C.15.001.155.026.174.047c.005.01.011.014.018.014.009 0 .019-.01.026-.02.021-.041.023-.1.038-.144C.274-.17.27-.24.269-.312a.612.612 0 0 1 .089-.076l.17-.171c.004-.012.014-.039 0-.05-.021-.03-.03-.029-.069-.032-.011.003-.018.011-.026.019a.562.562 0 0 1-.107.145c-.011.008-.066.059-.082.07-.024.021-.041.022-.07.019a.127.127 0 0 1-.031-.057C.126-.51.133-.577.092-.635.08-.645.06-.642.043-.641c-.014 0-.027.016-.027.031.003.037.019.068.019.108.003.043.012.07.025.114.025.055.03.08.076.107l.013.013a.197.197 0 0 1 .02.106c.004.043-.019.09-.02.134Z" style="fill-rule:nonzero" transform="matrix(40 0 0 40 927.703 670.979)"/><path d="M.023-.057v.012a.11.11 0 0 0 .013.032C.049.005.06.009.08.005.086.002.094-.002.1-.008c.01.01.023.018.034.021L.197 0C.208.003.23-.01.251-.013c.025-.01.108-.02.133-.025.074-.004.138-.018.215-.019a.17.17 0 0 0 .019-.019C.624-.096.611-.115.593-.121a.611.611 0 0 0-.164-.012C.385-.129.321-.13.283-.121.28-.119.269-.12.264-.12l-.029.001-.078.004-.029.001H.117l.001-.064C.121-.187.12-.212.131-.216c.015.001.034.01.05.007l.004-.002.011-.009L.2-.222C.232-.241.253-.245.295-.26a.557.557 0 0 1 .26-.044c.012.001.04.017.05.012.014-.005.029-.018.026-.034C.638-.35.608-.37.593-.38.555-.392.501-.386.46-.386c-.063.002-.144.033-.209.05H.207a.464.464 0 0 0-.064.007C.142-.336.136-.348.137-.354v-.007L.143-.45.15-.456C.186-.488.242-.5.289-.519a.475.475 0 0 1 .183-.019C.493-.541.506-.51.523-.5c.014.004.038-.002.044-.013v-.063C.564-.593.533-.613.523-.621c-.005 0-.064-.013-.082-.012-.058.001-.088.014-.139.025-.058.02-.106.043-.165.044C.119-.561.104-.566.086-.57c-.013.005-.043.009-.05.025a.273.273 0 0 0 0 .07c0 .006.014.039.019.044v.095a.25.25 0 0 1-.007.026c0 .006-.006.046-.006.056v.019l-.002.02-.009.068-.002.02c0 .01-.006.058-.006.07Z" style="fill-rule:nonzero" transform="matrix(40 0 0 40 948.343 670.979)"/><path d="M.011-.117c0 .025.019.049.038.063a.408.408 0 0 0 .233.051c.057.001.11.002.165-.02a.22.22 0 0 0 .121-.113.176.176 0 0 0-.019-.101A.456.456 0 0 0 .34-.37C.294-.393.229-.411.201-.452v-.006c.027-.017.055-.025.095-.04C.343-.52.414-.547.46-.572c.014-.004.038-.016.051-.013.002 0 .021.013.025.013.02.006.04-.012.051-.026C.585-.619.594-.64.574-.655L.535-.674l-.058.006c-.029.005-.107.039-.14.051-.066.024-.136.046-.187.083-.005 0-.041.012-.044.012-.017.008-.036.016-.042.034-.003.019-.008.05.004.067a.216.216 0 0 0 .089.07 2.2 2.2 0 0 0 .234.101c.023.025.071.042.082.076.01.024-.014.043-.032.057-.068.024-.139.02-.209.019A.238.238 0 0 1 .125-.13C.123-.132.111-.145.104-.15a.073.073 0 0 0-.061-.017c-.021.003-.034.029-.032.05Z" style="fill-rule:nonzero" transform="matrix(40 0 0 40 975.303 670.979)"/><path d="M-1.26-.2c.1 80.32.7 403.56.74 484.46" style="fill:none;fill-rule:nonzero;stroke:#000;stroke-width:3px;stroke-dasharray:8,9" transform="translate(131.792 106.196)"/><path d="M1.76-1.4C20.9-.16 68.48.46 112.74 5.82c44.24 5.38 106.78 15.06 154.54 25.04 47.76 9.98 92.04 21.88 132.02 34.9 39.96 13.02 72.04 25.66 107.8 43.24 35.76 17.58 74.54 39.38 106.76 62.24 32.22 22.88 62.02 49.98 86.54 74.96 24.54 24.96 42.46 47.44 60.58 74.88 18.14 27.46 36.46 60.38 48.22 89.8 11.76 29.42 18.94 72.08 22.32 86.7" style="fill:none;fill-rule:nonzero;stroke:#364fc7;stroke-width:3px;stroke-dasharray:1.5,7" transform="translate(130.987 103.405)"/><path d="M805.06 461.36c7.38 4.2 16.32 17.06 23.92 33.76M835.76 454.96c.76 5.78 3.14 20.04-6.78 40.16" style="fill:none;fill-rule:nonzero;stroke:#364fc7;stroke-width:3px;stroke-dasharray:1.5,5" transform="translate(130.987 103.405)"/><path d="M.048-.038c.01.042.044.05.075.049.086.025.187.027.272.032A.44.44 0 0 0 .562.006c.035-.029.083-.077.079-.138C.636-.205.589-.253.55-.298.504-.338.428-.394.369-.4.365-.403.36-.405.361-.412c.036-.035.102-.049.112-.114.012-.016.001-.035-.001-.052a.597.597 0 0 0-.265-.08C.172-.662.118-.65.08-.645a.118.118 0 0 0-.049.034c-.023.015-.016.045-.005.065l.02.015a.269.269 0 0 1 .131-.031c.017 0 .033.001.048.003.036 0 .078.019.114.023.001.011-.001.027-.013.023-.036.02-.132.044-.174.058C.13-.437.13-.393.146-.368c.014.03.02.023.05.033.091.019.198.022.279.076.037.031.093.074.085.135-.013.03-.053.05-.08.067a.463.463 0 0 1-.117.014.63.63 0 0 1-.156-.021C.161-.076.118-.101.074-.106.047-.094.05-.07.048-.038Z" style="fill-rule:nonzero" transform="matrix(40 0 0 40 144.541 355.635)"/><path d="M.128-.587c-.029.099-.081.194-.079.295a.95.95 0 0 0 .01.106l.004.013c.023.05.033.096.065.128.04.038.086.076.132.07.13-.006.268-.118.33-.306C.639-.394.608-.575.535-.65a.206.206 0 0 0-.15-.066.297.297 0 0 0-.095.019c-.002 0-.005-.004-.005-.008v-.039C.281-.746.263-.767.256-.759c-.06.01-.1.095-.128.172Zm.01.279a.894.894 0 0 1 .069-.25c.013.025.015.024.034.019.011-.024.024-.056.042-.068A.219.219 0 0 1 .37-.625c.048 0 .08.018.118.066.052.062.048.207.007.278-.045.106-.103.174-.19.204C.243-.062.203-.109.162-.186.145-.219.142-.262.138-.308Z" style="fill-rule:nonzero" transform="matrix(40 0 0 40 171.781 355.635)"/><path d="M.113-.289C.105-.305.085-.319.069-.319c-.012 0-.023.008-.026.027v.243a.17.17 0 0 0 .013.038c.006.015.034.014.05.012.003 0 .01-.008.013-.012.031-.055.067-.108.107-.164.001-.001.006.001.007.001v.106c0 .001.003.015.006.019.006.023.031.03.051.026.022-.009.033-.031.05-.051l.01-.014.037-.048.01-.014C.408-.161.458-.215.47-.22c.008 0 .014.014.016.02.008.058.012.113.038.164.008.016.02.033.038.037.016.004.036 0 .038-.018a.113.113 0 0 0-.007-.051C.587-.108.571-.147.574-.188a.34.34 0 0 0-.038-.139C.52-.348.5-.356.473-.359a.237.237 0 0 0-.057.057c-.03.036-.056.074-.088.108L.321-.2v-.095C.313-.311.302-.335.283-.34.258-.345.228-.333.207-.321a.067.067 0 0 1-.019.051.282.282 0 0 1-.056.076C.126-.213.115-.239.119-.257L.113-.289Z" style="fill-rule:nonzero" transform="matrix(40 0 0 40 199.301 355.635)"/><path d="M.238.052A.305.305 0 0 0 .377.026a.26.26 0 0 0 .133-.12.235.235 0 0 0-.004-.173C.457-.347.431-.385.343-.385c-.094.008-.092.02-.179.03C.152-.36.159-.37.157-.379c.001-.006.004-.026.007-.029.007-.028.021-.089.028-.112.002-.006.016-.035.024-.035l.102.014a.854.854 0 0 0 .149.009l.059-.009c.017-.015.052-.013.052-.042.005-.028.009-.049-.017-.063C.541-.664.518-.665.49-.66l-.023.012a.499.499 0 0 1-.106.009C.308-.639.253-.644.21-.65.195-.654.176-.661.162-.661.142-.647.121-.64.113-.62c0 .003-.006.039-.006.053.001.019-.009.037-.012.059-.02.068-.024.105-.052.17-.003.027-.002.055.023.071a.189.189 0 0 0 .053.008.33.33 0 0 0 .063-.008c.072-.015.057-.016.13-.035.045.001.055.01.085.041.045.046.058.117.01.155-.043.036-.071.079-.148.069C.2-.041.187-.047.141-.085.111-.095.112-.118.082-.118c-.031-.003-.049.04-.041.065.004.009.028.046.044.053.009.001.035.024.086.037.004.004.06.013.067.015Z" style="fill-rule:nonzero" transform="matrix(40 0 0 40 489.488 643.585)"/><path d="M.128-.587c-.029.099-.081.194-.079.295a.95.95 0 0 0 .01.106l.004.013c.023.05.033.096.065.128.04.038.086.076.132.07.13-.006.268-.118.33-.306C.639-.394.608-.575.535-.65a.206.206 0 0 0-.15-.066.297.297 0 0 0-.095.019c-.002 0-.005-.004-.005-.008v-.039C.281-.746.263-.767.256-.759c-.06.01-.1.095-.128.172Zm.01.279a.894.894 0 0 1 .069-.25c.013.025.015.024.034.019.011-.024.024-.056.042-.068A.219.219 0 0 1 .37-.625c.048 0 .08.018.118.066.052.062.048.207.007.278-.045.106-.103.174-.19.204C.243-.062.203-.109.162-.186.145-.219.142-.262.138-.308Z" style="fill-rule:nonzero" transform="matrix(40 0 0 40 514.208 643.585)"/><path d="M.113-.289C.105-.305.085-.319.069-.319c-.012 0-.023.008-.026.027v.243a.17.17 0 0 0 .013.038c.006.015.034.014.05.012.003 0 .01-.008.013-.012.031-.055.067-.108.107-.164.001-.001.006.001.007.001v.106c0 .001.003.015.006.019.006.023.031.03.051.026.022-.009.033-.031.05-.051l.01-.014.037-.048.01-.014C.408-.161.458-.215.47-.22c.008 0 .014.014.016.02.008.058.012.113.038.164.008.016.02.033.038.037.016.004.036 0 .038-.018a.113.113 0 0 0-.007-.051C.587-.108.571-.147.574-.188a.34.34 0 0 0-.038-.139C.52-.348.5-.356.473-.359a.237.237 0 0 0-.057.057c-.03.036-.056.074-.088.108L.321-.2v-.095C.313-.311.302-.335.283-.34.258-.345.228-.333.207-.321a.067.067 0 0 1-.019.051.282.282 0 0 1-.056.076C.126-.213.115-.239.119-.257L.113-.289Z" style="fill-rule:nonzero" transform="matrix(40 0 0 40 541.728 643.585)"/><path d="M0 0h-328.1M0 0h-328.1M-271.72-20.52C-289.56-14.04-307.38-7.54-328.1 0m56.38-20.52C-289.24-14.14-306.76-7.78-328.1 0M-271.72 20.52C-289.56 14.04-307.38 7.54-328.1 0m56.38 20.52C-289.24 14.14-306.76 7.78-328.1 0" style="fill:none;fill-rule:nonzero;stroke:#000;stroke-width:2px" transform="translate(461.869 622.526)"/><path d="M0 0h369.18M0 0h369.18M312.8 20.52c20.34-7.4 40.68-14.8 56.38-20.52M312.8 20.52c15.36-5.6 30.72-11.18 56.38-20.52M312.8-20.52c20.34 7.4 40.68 14.8 56.38 20.52M312.8-20.52c15.36 5.6 30.72 11.18 56.38 20.52" style="fill:none;fill-rule:nonzero;stroke:#000;stroke-width:2px" transform="translate(591.336 624.325)"/></svg>